<?xml version="1.0" encoding="UTF-8"?>
<svg width="1501.8" height="172.54" version="1.1" viewBox="0 0 1501.8 172.54" xmlns="http://www.w3.org/2000/svg" xmlns:xlink="http://www.w3.org/1999/xlink">
 <defs>
  <linearGradient id="linearGradient5186">
   <stop stop-color="#ef2008" offset="0"/>
   <stop stop-color="#ff6428" offset="1"/>
  </linearGradient>
  <linearGradient id="linearGradient9555-6-0-7" x1="51.714" x2="210.4" y1="99.77" y2="99.77" gradientTransform="matrix(.46006 .79781 -.84032 .48574 110.4 -75.872)" gradientUnits="userSpaceOnUse" xlink:href="#linearGradient5186"/>
  <linearGradient id="linearGradient15669" x1="115.86" x2="301.39" y1="186" y2="186" gradientTransform="matrix(.49798 .86357 -.86108 .49775 92.132 -166.05)" gradientUnits="userSpaceOnUse" xlink:href="#linearGradient1884"/>
  <linearGradient id="linearGradient861" x1="177.47" x2="1418.8" y1="85.938" y2="85.938" gradientTransform="translate(4.003)" gradientUnits="userSpaceOnUse" xlink:href="#linearGradient5186"/>
  <linearGradient id="linearGradient1031" x1="412.81" x2="499.96" y1="252.29" y2="252.29" gradientTransform="matrix(.99429 0 0 .99549 -410.46 -152.7)" gradientUnits="userSpaceOnUse" xlink:href="#linearGradient1884"/>
  <linearGradient id="linearGradient1884">
   <stop stop-color="#157ee9" offset="0"/>
   <stop stop-color="#3ecc78" offset="1"/>
  </linearGradient>
 </defs>
 <g fill="#ef2008" stroke-width="1.2576" aria-label="®">
  <path d="m1501.8 31.294q0 7.3481-2.4205 13.227-2.4206 5.792-6.4836 9.8551-4.0631 3.9766-9.4229 6.1378-5.3598 2.0748-11.238 2.0748t-11.238-2.0748q-5.3598-2.1612-9.4229-6.1378-4.063-4.0631-6.4836-9.8551-2.4206-5.8785-2.4206-13.227t2.4206-13.14q2.4206-5.8785 6.4836-9.8551 4.0631-4.0631 9.4229-6.1378 5.3598-2.1612 11.238-2.1612t11.238 2.1612q5.3598 2.0748 9.4229 6.1378 4.063 3.9766 6.4836 9.8551 2.4205 5.792 2.4205 13.14zm-6.3107 0q0-5.7056-1.729-10.374-1.7289-4.7547-4.8411-8.1262-3.0257-3.3715-7.3481-5.1869-4.2359-1.8154-9.3364-1.8154t-9.4229 1.8154q-4.236 1.8154-7.3481 5.1869-3.0257 3.3715-4.7547 8.1262-1.7289 4.6682-1.7289 10.374 0 5.7056 1.7289 10.46 1.729 4.6682 4.7547 8.0397 3.1121 3.3715 7.3481 5.1869 4.3224 1.8154 9.4229 1.8154t9.3364-1.8154q4.3224-1.8154 7.3481-5.1869 3.1122-3.3715 4.8411-8.0397 1.729-4.7547 1.729-10.46zm-14.696 17.203q-1.9883-3.8902-4.4953-7.3481-2.4206-3.5444-4.236-5.6191h-5.792v12.967h-6.1379v-33.542q2.3341-0.51869 4.9276-0.77804 2.5934-0.25935 4.7546-0.25935 7.4346 0 11.325 2.7663t3.8902 8.3855q0 3.1986-1.729 5.6191-1.6425 2.3341-4.7547 3.6308 0.8645 1.0374 1.9883 2.5935 1.1239 1.5561 2.3341 3.4579 1.2103 1.9019 2.4206 3.9766t2.1612 4.1495zm-14.523-17.981h3.285q3.8902 0 6.4836-1.0374 2.5935-1.1238 2.5935-4.4953 0-3.1986-2.507-4.4089-2.4206-1.2967-5.8785-1.2967-0.951 0-1.9883 0.08645-1.0374 0-1.9883 0.08645z"/>
 </g>
 <g transform="scale(.99924 1.0008)" fill="url(#linearGradient861)" aria-label="RIVACYSAFE">
  <path d="m181.48 9.4045h29.739v153.07h-29.739zm12.027 73.909h40.891v25.803h-40.891zm40.891 0q11.152 0 19.024-2.1867 8.0907-2.1867 12.245-7.4347 4.3733-5.248 4.3733-14.432 0-9.4027-4.3733-14.432-4.1547-5.248-12.245-7.4347-7.872-2.1867-19.024-2.1867v-25.803q19.899 0 34.768 4.8107 15.088 4.592 23.397 15.525 8.528 10.933 8.528 29.52 0 18.368-8.528 29.52-8.3094 10.933-23.397 15.744-14.869 4.592-34.768 4.592zm-40.891-73.909h40.891v25.803h-40.891zm43.952 82.437h29.739l34.331 70.629h-33.893z"/>
  <path d="m322.08 9.4045h29.739v153.07h-29.739z"/>
  <path d="m414.79 162.47-46.795-153.07h30.395l44.827 153.07zm41.984 0h-28.427l45.045-153.07h30.613z"/>
  <path d="m541.62 9.4045h28.427l-44.827 153.07h-30.395zm41.984 0 47.232 153.07h-30.613l-45.045-153.07zm-62.32 94.245h82.437v25.803h-82.437z"/>
  <path d="m779.75 100.15q-1.5307 19.68-10.059 34.549-8.3093 14.869-23.397 23.179-14.869 8.0907-36.517 8.0907-24.272 0-41.328-10.715-16.837-10.933-25.584-29.083t-8.7467-40.453q0-16.4 4.8107-30.832 5.0293-14.651 14.651-25.584t23.616-17.056q14.213-6.3413 32.581-6.3413 30.832 0 48.107 16.4 17.493 16.181 20.992 43.733h-31.707q-1.0933-7.4347-3.7173-13.339-2.624-6.1227-7.216-10.496-4.3733-4.3733-10.933-6.7787t-15.525-2.4053q-15.525 0-25.584 7.6533-9.84 7.4347-14.432 19.461t-4.592 25.584q0 13.557 4.592 25.803 4.592 12.027 14.432 19.68 10.059 7.4347 25.584 7.4347 9.84 0 16.837-2.8427 6.9974-2.8427 11.589-7.872 4.8107-5.248 7.216-12.245 2.4053-6.9974 3.0613-15.525z"/>
  <path d="m832.45 119.61-52.48-110.21h30.613l36.736 80.032h-7.872l36.517-80.032h30.613l-52.48 110.21zm-4.1547-32.363h29.957v75.221h-29.957z"/>
  <path d="m941.78 113.71q0.87466 7.6534 5.248 13.339t11.371 8.7467q7.216 2.8427 16.181 2.8427 12.027 0 20.117-4.1547 8.3093-4.3733 8.3093-13.339 0-6.3413-5.0293-9.84-4.8107-3.7173-13.12-5.904-8.0907-2.4053-17.712-4.3733-9.6214-2.1867-19.461-5.248-9.6214-3.28-17.712-8.528t-13.12-13.995q-4.8107-8.7467-4.8107-22.304 0-13.12 7.6534-23.179 7.6533-10.277 21.211-15.963 13.776-5.904 31.488-5.904 16.837 0 30.176 6.7787 13.339 6.7787 21.211 18.587t7.872 26.677h-31.488q-0.87471-11.808-8.0907-18.368-6.9974-6.56-20.773-6.56t-20.992 5.0293-7.216 12.901q0 6.9973 4.8107 10.933 5.0293 3.7173 13.12 6.3413 8.0907 2.4053 17.712 4.3733 9.84 1.968 19.461 5.0293 9.6214 2.8427 17.712 8.0907 8.3093 5.0293 13.12 13.557 5.0293 8.528 5.0293 21.867 0 21.211-15.963 33.019-15.963 11.808-44.827 11.808-17.712 0-31.707-6.7787t-22.304-18.587q-8.3093-11.808-8.9653-26.896z"/>
  <path d="m1088.9 9.4045h28.427l-44.827 153.07h-30.395zm41.984 0 47.232 153.07h-30.613l-45.045-153.07zm-62.32 94.245h82.438v25.803h-82.438z"/>
  <path d="m1194.1 9.4045h29.739v153.07h-29.739zm28.427 67.568h67.131v25.803h-67.131zm-16.4-67.568h92.278v26.021h-92.278z"/>
  <path d="m1315.9 162.47v-153.07h106.05v26.021h-76.315v37.173h67.568v25.803h-67.568v38.048h77.19v26.021z"/>
 </g>
 <g>
  <path d="m148.56 29.987c-19.676-33.957-59.123-36.825-95.635-17.401l16.524 28.654c21.4-10.491 41.055-13.186 51.61 4.995 10.45 18.242-0.71357 35.662-20.489 48.973l16.284 28.238c35.102-21.975 51.33-59.413 31.707-93.459z" fill="url(#linearGradient9555-6-0-7)"/>
  <path d="m32.833 1.6404-18.481 10.683 92.39 160.22 18.481-10.683z" fill="url(#linearGradient15669)"/>
  <path d="m13.775 35.215c-16.585 25.683-18.86 58.681-3.1791 86.004 15.771 27.335 45.497 41.916 76.056 40.374z" fill="url(#linearGradient1031)"/>
 </g>
</svg>
