<?xml version="1.0" encoding="UTF-8"?>
<svg width="128" height="128" version="1.1" viewBox="0 0 128 128" xmlns="http://www.w3.org/2000/svg" xmlns:xlink="http://www.w3.org/1999/xlink">
 <defs>
  <linearGradient id="linearGradient2073" x1="-9.2566" x2="118.74" y1="-102.97" y2="-102.97" gradientTransform="matrix(1 0 0 1.0357 9.2566 170.64)" gradientUnits="userSpaceOnUse">
   <stop stop-color="#0d6eff" offset="0"/>
   <stop stop-color="#45da64" offset="1"/>
  </linearGradient>
 </defs>
 <path d="m33.274 6c-18.375 0-33.274 15.434-33.274 34.465v0.67213c0 29.051 34.976 62.79 53.226 77.212 3.0749 2.46 6.8992 3.6514 10.774 3.6514 3.875 0 7.6741-1.2173 10.774-3.6514 9.719-7.6805 24.15-20.858 35.547-35.87-1.8888-0.92609-3.9088-1.7563-6.0652-2.4722-3.0752-0.18909-5.3382-2.4115-5.0772-4.984 0.26118-2.5725 2.9452-4.4895 6.0203-4.3003 3.8644 0.84467 7.4681 2.132 10.79 3.7816 4.6661-7.1881 8.374-14.637 10.377-21.99-4.0887-2.6501-8.9676-4.7029-14.657-5.9236-3.0772 0.14866-5.5542-1.8112-5.5577-4.3979-3e-3 -2.5867 2.4715-4.7889 5.5487-4.9375 5.9496 0.63121 11.416 2.3254 16.273 4.8491 8e-3 -0.32236 0.0269-0.64625 0.0269-0.9675v-0.67213c0-19.031-14.899-34.465-33.274-34.465-10.675 0-20.726 5.3095-26.976 14.268l-3.75 5.3585-3.75-5.3585c-6.25-8.9588-16.301-14.268-26.976-14.268zm30.692 36.47a13.642 14.739 0 0 1 13.642 14.738 13.642 14.739 0 0 1-10.181 14.24l7.2082 21.011c0.36218 1.0561-0.1643 2.2984-0.97457 2.2978h-19.617c-0.81027 5.5e-4 -1.339-1.2417-0.9768-2.2978l7.2306-21.076a13.642 14.739 0 0 1-9.9724-14.175 13.642 14.739 0 0 1 13.642-14.738z" fill="url(#linearGradient2073)"/>
</svg>
